<svg width="164" height="185" viewBox="0 0 164 185" fill="none" xmlns="http://www.w3.org/2000/svg">
<rect x="1.97897" y="99.4907" width="160.521" height="84.0091" fill="#1E1B18" stroke="white" stroke-width="3"/>
<rect x="2.47897" y="74.6484" width="159.521" height="21.3425" fill="#1E1B18" stroke="white" stroke-width="4"/>
<line x1="51.5793" y1="73.1484" x2="0.478962" y2="73.1484" stroke="white"/>
<mask id="path-4-inside-1" fill="white">
<path fill-rule="evenodd" clip-rule="evenodd" d="M0.47902 75.1827V72.1623L143.78 0L155.346 22.597L49.8759 75.709V75.1827H0.47902ZM0.478964 100.525L0 100.525L0.12208 100.764L0.595626 100.525H0.478964Z"/>
</mask>
<path fill-rule="evenodd" clip-rule="evenodd" d="M0.47902 75.1827V72.1623L143.78 0L155.346 22.597L49.8759 75.709V75.1827H0.47902ZM0.478964 100.525L0 100.525L0.12208 100.764L0.595626 100.525H0.478964Z" fill="#1E1B18"/>
<path d="M0.47902 72.1623L-1.32003 68.5897L-3.52098 69.6981V72.1623H0.47902ZM0.47902 75.1827H-3.52098V79.1827H0.47902V75.1827ZM143.78 0L147.341 -1.82256L145.53 -5.35983L141.981 -3.57259L143.78 0ZM155.346 22.597L157.146 26.1696L160.742 24.3586L158.907 20.7744L155.346 22.597ZM49.8759 75.709H45.8759V82.2018L51.675 79.2815L49.8759 75.709ZM49.8759 75.1827H53.8759V71.1827H49.8759V75.1827ZM0.478964 100.525L0.478645 104.525H0.478964V100.525ZM0 100.525L0.000318579 96.5251L-6.54126 96.5246L-3.56066 102.348L0 100.525ZM0.12208 100.764L-3.43858 102.586L-1.62799 106.123L1.92113 104.336L0.12208 100.764ZM0.595626 100.525L2.39468 104.098L0.595626 96.5251V100.525ZM-3.52098 72.1623V75.1827H4.47902V72.1623H-3.52098ZM141.981 -3.57259L-1.32003 68.5897L2.27808 75.7349L145.579 3.57259L141.981 -3.57259ZM158.907 20.7744L147.341 -1.82256L140.219 1.82256L151.786 24.4195L158.907 20.7744ZM51.675 79.2815L157.146 26.1696L153.547 19.0244L48.0769 72.1364L51.675 79.2815ZM45.8759 75.1827V75.709H53.8759V75.1827H45.8759ZM0.47902 79.1827H49.8759V71.1827H0.47902V79.1827ZM0.479282 96.5251L0.000318579 96.5251L-0.000318579 104.525L0.478645 104.525L0.479282 96.5251ZM-3.56066 102.348L-3.43858 102.586L3.68274 98.941L3.56066 98.7025L-3.56066 102.348ZM1.92113 104.336L2.39468 104.098L-1.20343 96.9525L-1.67698 97.191L1.92113 104.336ZM0.595626 96.5251H0.478964V104.525H0.595626V96.5251Z" fill="white" mask="url(#path-4-inside-1)"/>
<path fill-rule="evenodd" clip-rule="evenodd" d="M32.3164 96.3349L69.843 72.6484H88.5661L45.7393 99.6804H34.599L32.3164 96.3349Z" fill="white"/>
<path fill-rule="evenodd" clip-rule="evenodd" d="M75.415 96.3349L112.942 72.6484H131.665L88.8379 99.6804H77.6977L75.415 96.3349Z" fill="white"/>
<path fill-rule="evenodd" clip-rule="evenodd" d="M164 72.6484H154.674L117.147 96.3349L119.43 99.6804H130.57L164 78.5796V72.6484Z" fill="white"/>
<path fill-rule="evenodd" clip-rule="evenodd" d="M78.1343 60.511L79.0037 58.2419L51.0804 47.7173L38.7258 53.7473L68.7819 65.0758L78.1343 60.511Z" fill="white"/>
<path fill-rule="evenodd" clip-rule="evenodd" d="M114.835 41.429L115.704 39.1598L87.7806 28.6353L75.426 34.6653L105.482 45.9937L114.835 41.429Z" fill="white"/>
<path fill-rule="evenodd" clip-rule="evenodd" d="M153.16 21.9998L154.029 19.7307L126.106 9.20605L113.751 15.2361L143.807 26.5645L153.16 21.9998Z" fill="white"/>
<path d="M40.9537 144.858C40.9537 149.101 39.776 152.347 37.4205 154.597C35.065 156.835 31.6725 157.954 27.2428 157.954H20.0533V132.255H27.9986C32.0885 132.255 35.2701 133.356 37.5435 135.56C39.817 137.763 40.9537 140.862 40.9537 144.858ZM36.524 144.999C36.524 138.847 33.6471 135.771 27.8932 135.771H24.2545V154.421H27.2428C33.4303 154.421 36.524 151.28 36.524 144.999ZM46.4908 132.255H54.1197C57.6588 132.255 60.2135 132.771 61.7838 133.802C63.3658 134.833 64.1568 136.462 64.1568 138.688C64.1568 140.188 63.7701 141.437 62.9967 142.433C62.2232 143.429 61.11 144.056 59.6568 144.313V144.489C61.4615 144.829 62.7857 145.503 63.6295 146.511C64.485 147.507 64.9127 148.86 64.9127 150.571C64.9127 152.88 64.1041 154.69 62.4869 156.003C60.8814 157.304 58.6432 157.954 55.7721 157.954H46.4908V132.255ZM50.692 142.872H54.735C56.4928 142.872 57.776 142.597 58.5846 142.046C59.3932 141.483 59.7975 140.534 59.7975 139.198C59.7975 137.991 59.358 137.118 58.4791 136.579C57.6119 136.04 56.2291 135.771 54.3307 135.771H50.692V142.872ZM50.692 146.282V154.421H55.1568C56.9146 154.421 58.2389 154.087 59.1295 153.419C60.0318 152.739 60.483 151.673 60.483 150.22C60.483 148.884 60.026 147.894 59.1119 147.249C58.1978 146.604 56.8092 146.282 54.9459 146.282H50.692Z" fill="white"/>
<line x1="82" y1="142.889" x2="142.469" y2="142.889" stroke="white" stroke-width="2"/>
<line x1="82" y1="149.647" x2="142.469" y2="149.647" stroke="white" stroke-width="2"/>
</svg>
